<svg id="visual" viewBox="0 0 900 600" width="900" height="600" xmlns="http://www.w3.org/2000/svg" xmlns:xlink="http://www.w3.org/1999/xlink" version="1.1"><rect x="0" y="0" width="900" height="600" fill="#002233"></rect><path d="M0 430L21.5 435.7C43 441.3 86 452.7 128.8 455.2C171.7 457.7 214.3 451.3 257.2 455.8C300 460.3 343 475.7 385.8 479C428.7 482.3 471.3 473.7 514.2 465.7C557 457.7 600 450.3 642.8 447C685.7 443.7 728.3 444.3 771.2 455.5C814 466.7 857 488.3 878.5 499.2L900 510L900 601L878.5 601C857 601 814 601 771.2 601C728.3 601 685.7 601 642.8 601C600 601 557 601 514.2 601C471.3 601 428.7 601 385.8 601C343 601 300 601 257.2 601C214.3 601 171.7 601 128.8 601C86 601 43 601 21.5 601L0 601Z" fill="#0066FF" stroke-linecap="round" stroke-linejoin="miter"></path></svg>